<?xml version="1.0" encoding="utf-8"?>
<!-- Generator: Adobe Illustrator 16.0.0, SVG Export Plug-In . SVG Version: 6.00 Build 0)   -->
<!DOCTYPE svg PUBLIC "-//W3C//DTD SVG 1.1//EN" "http://www.w3.org/Graphics/SVG/1.1/DTD/svg11.dtd">
<svg version="1.1" id="Layer_1" xmlns="http://www.w3.org/2000/svg" xmlns:xlink="http://www.w3.org/1999/xlink" x="0px" y="0px"
	 width="286.907px" height="40px" viewBox="0 0 286.907 40" enable-background="new 0 0 286.907 40" xml:space="preserve">
<g>
	<path fill-rule="evenodd" clip-rule="evenodd" fill="#F79433" d="M72.042,3c0-1.657-1.345-3-3.001-3l0,0H3.002C1.345,0,0,1.343,0,3
		l0,0v34c0,1.655,1.345,3,3.002,3l0,0h66.036c1.658,0,3.001-1.344,3.001-3l0,0V3H72.042L72.042,3z"/>
	<g>
		<path fill-rule="evenodd" clip-rule="evenodd" fill="#FFFFFF" d="M27.007,25.554c-0.865-1.089-1.523-2.326-1.947-3.65l0,0h-0.172
			c-1.127,1.57-2.942,2.5-4.876,2.5c-1.723,0-3.363-0.74-4.503-2.031l0,0v4.961c1.397,0.704,2.938,1.069,4.503,1.069
			C22.627,28.403,25.139,27.381,27.007,25.554L27.007,25.554L27.007,25.554z M36.021,16.404H20.012v2v2h16.009V16.404L36.021,16.404
			z M47.528,22.373v4.961c1.396,0.704,2.938,1.069,4.502,1.069c5.524,0,10.006-4.479,10.006-10c0-5.52-4.482-10-10.006-10
			c-5.523,0-10.005,4.48-10.005,10l0,0v16.447h4.003V18.404c0-3.312,2.689-6,6.003-6c3.313,0,6.003,2.688,6.003,6
			c0,3.312-2.689,6-6.003,6C50.307,24.404,48.666,23.664,47.528,22.373L47.528,22.373L47.528,22.373z M43.016,11.255
			c-1.87-1.827-4.38-2.851-6.996-2.851c-4.175,0-7.912,2.59-9.373,6.499l0,0l4.496,0.001c1.128-1.569,2.943-2.5,4.876-2.5
			c2.007,0,3.881,1.003,4.995,2.672l0,0C41.436,13.688,42.115,12.391,43.016,11.255L43.016,11.255L43.016,11.255z M10.006,18.404V35
			h4.002V18.404c0-3.312,2.689-6,6.003-6c1.934,0,3.748,0.93,4.876,2.5l0,0h0.173c0.422-1.324,1.083-2.56,1.948-3.649l0,0
			c-1.87-1.827-4.381-2.851-6.997-2.851C14.489,8.404,10.006,12.884,10.006,18.404L10.006,18.404L10.006,18.404z"/>
		<path fill-rule="evenodd" clip-rule="evenodd" fill="#ED1C24" d="M40.495,22.362c-1.14,1.291-2.78,2.031-4.503,2.031
			c-1.934,0-3.748-0.932-4.876-2.5l0,0l-4.496-0.001c1.46,3.91,5.196,6.5,9.372,6.5c1.564,0,3.106-0.367,4.503-1.069l0,0V22.362
			L40.495,22.362z"/>
	</g>
</g>
<g>
	<path fill-rule="evenodd" clip-rule="evenodd" fill="#F79433" d="M286.907,3c0-1.657-1.344-3-3-3l0,0H78.273
		c-1.657,0-3.002,1.344-3.002,3l0,0v34c0,1.655,1.345,3,3.002,3l0,0h205.634c1.656,0,3-1.344,3-3l0,0V3L286.907,3z"/>
	<g>
		<g id="Polskie">
			<path id="P_1_" fill-rule="evenodd" clip-rule="evenodd" fill="#FFFFFF" d="M88.249,11.534c1.239-0.212,2.98-0.37,5.431-0.37
				c2.478,0,4.245,0.475,5.431,1.423c1.16,0.896,1.899,2.373,1.899,4.113s-0.555,3.243-1.635,4.218
				c-1.372,1.265-3.4,1.873-5.774,1.873c-0.527,0-1.001-0.028-1.37-0.106v6.38H88.25L88.249,11.534L88.249,11.534L88.249,11.534z
				 M92.231,19.6c0.342,0.079,0.737,0.105,1.344,0.105c2.135,0,3.453-1.081,3.453-2.874c0-1.634-1.133-2.61-3.163-2.61
				c-0.792,0-1.345,0.052-1.634,0.133V19.6L92.231,19.6z"/>
			<path id="o_1_" fill-rule="evenodd" clip-rule="evenodd" fill="#FFFFFF" d="M114.216,22.474c0,4.72-3.35,6.881-6.802,6.881
				c-3.769,0-6.669-2.479-6.669-6.644c0-4.192,2.742-6.854,6.908-6.854C111.58,15.857,114.216,18.573,114.216,22.474L114.216,22.474
				z M104.883,22.606c0,2.213,0.923,3.875,2.636,3.875c1.582,0,2.558-1.556,2.558-3.902c0-1.898-0.738-3.849-2.558-3.849
				C105.622,18.731,104.883,20.708,104.883,22.606L104.883,22.606z"/>
			<polygon id="l" fill-rule="evenodd" clip-rule="evenodd" fill="#FFFFFF" points="115.375,10.347 119.383,10.347 119.383,29.065 
				115.375,29.065 115.375,10.347 			"/>
			<path id="s" fill-rule="evenodd" clip-rule="evenodd" fill="#FFFFFF" d="M121.279,25.584c0.738,0.448,2.267,0.948,3.453,0.948
				c1.213,0,1.713-0.395,1.713-1.053c0-0.685-0.395-1.002-1.872-1.504c-2.689-0.896-3.716-2.346-3.691-3.875
				c0-2.425,2.058-4.244,5.246-4.244c1.504,0,2.821,0.37,3.613,0.764l-0.686,2.768c-0.579-0.315-1.713-0.737-2.794-0.737
				c-0.976,0-1.529,0.395-1.529,1.027c0,0.634,0.5,0.949,2.083,1.502c2.452,0.844,3.453,2.11,3.479,3.981
				c0,2.426-1.871,4.193-5.562,4.193c-1.688,0-3.191-0.396-4.166-0.922L121.279,25.584L121.279,25.584z"/>
			<path id="k" fill-rule="evenodd" clip-rule="evenodd" fill="#FFFFFF" d="M135.436,21.604h0.052
				c0.289-0.555,0.607-1.081,0.922-1.555l2.61-3.875h4.824l-4.614,5.219l5.272,7.671h-4.93l-3.136-5.298l-1.001,1.266v4.032h-4.007
				V10.347h4.007L135.436,21.604L135.436,21.604L135.436,21.604z"/>
			<path id="i_1_" fill-rule="evenodd" clip-rule="evenodd" fill="#FFFFFF" d="M148.8,12.588c0,1.107-0.816,2.003-2.162,2.003
				c-1.266,0-2.083-0.896-2.083-2.003c0-1.133,0.845-2.003,2.138-2.003C147.984,10.584,148.774,11.455,148.8,12.588L148.8,12.588z
				 M144.661,29.065V16.173h4.008v12.892H144.661L144.661,29.065z"/>
			<path id="e_1_" fill-rule="evenodd" clip-rule="evenodd" fill="#FFFFFF" d="M153.649,23.897c0.107,1.662,1.768,2.453,3.638,2.453
				c1.372,0,2.479-0.185,3.558-0.555l0.528,2.716c-1.315,0.554-2.925,0.817-4.663,0.817c-4.378,0-6.882-2.531-6.882-6.564
				c0-3.269,2.028-6.88,6.512-6.88c4.165,0,5.746,3.242,5.746,6.431c0,0.686-0.079,1.292-0.132,1.582L153.649,23.897L153.649,23.897
				L153.649,23.897z M158.369,21.157c0-0.977-0.42-2.611-2.267-2.611c-1.688,0-2.372,1.556-2.478,2.611H158.369L158.369,21.157z"/>
		</g>
		<g id="ePłatności">
			<path id="e" fill-rule="evenodd" clip-rule="evenodd" fill="#FFFFFF" d="M170.256,23.897c0.107,1.662,1.768,2.453,3.638,2.453
				c1.37,0,2.479-0.185,3.56-0.555l0.527,2.716c-1.318,0.554-2.926,0.817-4.666,0.817c-4.377,0-6.882-2.531-6.882-6.564
				c0-3.269,2.029-6.88,6.514-6.88c4.165,0,5.746,3.242,5.746,6.431c0,0.686-0.078,1.292-0.132,1.582L170.256,23.897L170.256,23.897
				L170.256,23.897z M174.977,21.157c0-0.977-0.424-2.611-2.27-2.611c-1.687,0-2.37,1.556-2.478,2.611H174.977L174.977,21.157z"/>
			<path id="P" fill-rule="evenodd" clip-rule="evenodd" fill="#FFFFFF" d="M179.905,11.534c1.237-0.212,2.978-0.37,5.431-0.37
				c2.479,0,4.243,0.475,5.429,1.423c1.16,0.896,1.898,2.373,1.898,4.113s-0.555,3.243-1.634,4.218
				c-1.371,1.265-3.399,1.873-5.772,1.873c-0.527,0-1.001-0.028-1.37-0.106v6.38h-3.981V11.534L179.905,11.534z M183.886,19.6
				c0.343,0.079,0.737,0.105,1.344,0.105c2.136,0,3.453-1.081,3.453-2.874c0-1.634-1.133-2.61-3.163-2.61
				c-0.791,0-1.344,0.052-1.636,0.133V19.6H183.886L183.886,19.6z"/>
			<polygon id="ł" fill-rule="evenodd" clip-rule="evenodd" fill="#FFFFFF" points="193.927,29.065 193.927,23.028 192.213,24.372 
				192.213,21.498 193.927,20.155 193.927,10.347 197.933,10.347 197.933,17.175 199.806,15.672 199.806,18.544 197.933,20.049 
				197.933,29.064 193.927,29.064 193.927,29.065 			"/>
			<path id="a" fill-rule="evenodd" clip-rule="evenodd" fill="#FFFFFF" d="M210.746,25.954c0,1.212,0.053,2.399,0.211,3.111h-3.611
				l-0.237-1.292h-0.079c-0.843,1.028-2.161,1.583-3.691,1.583c-2.609,0-4.164-1.899-4.164-3.955c0-3.348,3.005-4.929,7.566-4.929
				v-0.159c0-0.712-0.37-1.688-2.348-1.688c-1.317,0-2.715,0.447-3.558,0.976l-0.739-2.584c0.896-0.5,2.663-1.159,5.01-1.159
				c4.297,0,5.641,2.53,5.641,5.588V25.954L210.746,25.954L210.746,25.954z M206.87,22.975c-2.107,0-3.743,0.501-3.743,2.029
				c0,1.028,0.687,1.529,1.584,1.529c0.975,0,1.819-0.657,2.082-1.475c0.051-0.21,0.077-0.448,0.077-0.685V22.975L206.87,22.975z"/>
			<path id="t" fill-rule="evenodd" clip-rule="evenodd" fill="#FFFFFF" d="M216.888,12.694v3.479h2.873v2.954h-2.873v4.666
				c0,1.555,0.395,2.268,1.581,2.268c0.555,0,0.817-0.027,1.186-0.106l0.027,3.032c-0.502,0.185-1.478,0.342-2.585,0.342
				c-1.291,0-2.372-0.447-3.032-1.107c-0.737-0.765-1.105-2.003-1.105-3.823v-5.271h-1.714v-2.953h1.714v-2.4L216.888,12.694
				L216.888,12.694z"/>
			<path id="n" fill-rule="evenodd" clip-rule="evenodd" fill="#FFFFFF" d="M220.762,20.285c0-1.608-0.053-2.952-0.105-4.112h3.479
				l0.185,1.792h0.079c0.526-0.843,1.817-2.082,3.981-2.082c2.635,0,4.612,1.765,4.612,5.562v7.62h-4.007v-7.146
				c0-1.66-0.581-2.792-2.028-2.792c-1.109,0-1.768,0.764-2.057,1.501c-0.105,0.264-0.132,0.632-0.132,1.001v7.434h-4.008V20.285
				L220.762,20.285z"/>
			<path id="o" fill-rule="evenodd" clip-rule="evenodd" fill="#FFFFFF" d="M247.626,22.474c0,4.72-3.351,6.881-6.804,6.881
				c-3.769,0-6.671-2.479-6.671-6.644c0-4.192,2.742-6.854,6.908-6.854C244.989,15.857,247.626,18.573,247.626,22.474
				L247.626,22.474z M238.292,22.606c0,2.213,0.922,3.875,2.637,3.875c1.583,0,2.557-1.556,2.557-3.902
				c0-1.898-0.737-3.849-2.557-3.849C239.03,18.731,238.292,20.708,238.292,22.606L238.292,22.606z"/>
			<path id="ś" fill-rule="evenodd" clip-rule="evenodd" fill="#FFFFFF" d="M248.757,25.584c0.736,0.448,2.267,0.948,3.453,0.948
				c1.215,0,1.713-0.395,1.713-1.053c0-0.685-0.396-1.002-1.871-1.504c-2.689-0.896-3.718-2.346-3.689-3.875
				c0-2.425,2.055-4.244,5.244-4.244c1.504,0,2.821,0.37,3.613,0.764l-0.687,2.768c-0.581-0.315-1.714-0.737-2.793-0.737
				c-0.978,0-1.53,0.395-1.53,1.027c0,0.634,0.502,0.949,2.083,1.502c2.451,0.844,3.452,2.11,3.479,3.981
				c0,2.426-1.872,4.193-5.563,4.193c-1.687,0-3.188-0.396-4.164-0.922L248.757,25.584L248.757,25.584z M257.271,10.558
				l-3.217,4.007h-2.74l2.267-4.007H257.271L257.271,10.558z"/>
			<path id="c" fill-rule="evenodd" clip-rule="evenodd" fill="#FFFFFF" d="M268.582,28.722c-0.712,0.343-2.057,0.606-3.587,0.606
				c-4.164,0-6.827-2.556-6.827-6.591c0-3.77,2.583-6.854,7.382-6.854c1.054,0,2.214,0.184,3.059,0.5l-0.632,2.98
				c-0.478-0.21-1.186-0.396-2.242-0.396c-2.109,0-3.479,1.504-3.454,3.612c0,2.346,1.583,3.611,3.532,3.611
				c0.95,0,1.688-0.158,2.294-0.422L268.582,28.722L268.582,28.722z"/>
			<path id="i" fill-rule="evenodd" clip-rule="evenodd" fill="#FFFFFF" d="M273.615,12.588c0,1.107-0.817,2.003-2.159,2.003
				c-1.268,0-2.085-0.896-2.085-2.003c0-1.133,0.844-2.003,2.136-2.003C272.797,10.584,273.588,11.455,273.615,12.588
				L273.615,12.588z M269.476,29.065V16.173h4.008v12.892H269.476L269.476,29.065z"/>
		</g>
	</g>
</g>
<rect x="-40" y="-40" display="none" fill-rule="evenodd" clip-rule="evenodd" fill="none" width="366.907" height="120"/>
</svg>
